<?xml version="1.0" standalone="no"?>
<!DOCTYPE svg PUBLIC "-//W3C//DTD SVG 20010904//EN"
 "http://www.w3.org/TR/2001/REC-SVG-20010904/DTD/svg10.dtd">
<svg version="1.0" xmlns="http://www.w3.org/2000/svg"
 width="1079.000000pt" height="390.000000pt" viewBox="0 0 1079.000000 390.000000"
 preserveAspectRatio="xMidYMid meet">

<g transform="translate(0.000000,390.000000) scale(0.100000,-0.100000)"
fill="none" stroke="none">
<path d="M0 1952 l0 -1952 1461 0 c810 0 1459 4 1457 9 -1 4 -113 155 -248
335 -135 179 -245 330 -245 335 0 5 -4 13 -9 18 -5 5 -6 2 -1 -7 15 -29 -11 5
-100 124 -49 66 -88 125 -88 132 0 7 -4 12 -8 11 -4 -1 -32 32 -63 73 -30 41
-59 80 -64 85 -4 6 -58 78 -120 160 -61 83 -128 172 -149 199 -21 27 -37 53
-35 57 1 5 -2 9 -7 9 -13 0 -187 242 -183 255 2 5 0 7 -3 3 -7 -7 -53 43 -47
50 2 2 -3 9 -11 15 -8 7 -41 48 -73 92 -79 107 -88 119 -169 226 -38 50 -69
95 -67 100 1 5 -2 9 -7 9 -15 0 -101 121 -94 133 3 5 2 7 -4 4 -11 -7 -236
286 -236 308 0 8 -4 13 -8 12 -13 -4 -230 293 -223 305 4 6 3 8 -3 5 -11 -7
-363 453 -363 473 0 5 -3 10 -7 10 -5 0 -19 16 -32 35 -13 19 -32 45 -43 57
-40 46 -103 142 -100 152 2 6 1 8 -3 4 -4 -4 -25 16 -48 45 -22 29 -44 56 -48
62 -5 5 -9 -860 -9 -1943z"/>
<path d="M10756 3878 c-127 -176 -200 -267 -209 -261 -6 3 -7 1 -3 -5 9 -15
-223 -324 -237 -315 -6 3 -7 1 -3 -5 7 -12 -190 -282 -206 -282 -5 0 -7 -4 -4
-9 8 -12 -19 -33 -29 -23 -5 4 -5 2 -2 -5 4 -6 0 -18 -8 -26 -8 -9 -15 -18
-15 -21 0 -4 -46 -67 -102 -142 -127 -167 -129 -170 -202 -269 -32 -44 -65
-85 -73 -92 -8 -6 -13 -13 -11 -16 2 -3 -14 -27 -35 -53 -21 -27 -69 -92 -108
-144 -38 -52 -77 -101 -86 -107 -9 -7 -13 -13 -9 -13 6 0 -44 -72 -64 -90 -3
-3 -16 -21 -30 -40 -13 -19 -28 -39 -32 -45 -5 -5 -27 -35 -49 -65 -22 -30
-44 -54 -48 -53 -4 1 -8 -4 -8 -11 0 -7 -19 -37 -42 -67 -23 -30 -114 -149
-200 -266 -87 -117 -162 -209 -166 -205 -5 4 -6 2 -2 -3 3 -6 -49 -83 -116
-172 -67 -89 -189 -252 -271 -362 -82 -110 -152 -198 -156 -196 -4 2 -7 -2 -7
-9 0 -20 -224 -317 -234 -311 -5 4 -7 0 -4 -7 3 -7 -5 -24 -17 -38 -13 -14
-36 -44 -53 -68 -16 -24 -36 -52 -44 -63 -13 -19 2 -19 1453 -19 l1466 0 0
1950 c0 1082 -4 1950 -9 1950 -4 0 -16 -10 -25 -22z"/>
</g>
</svg>
